<?xml version="1.0" encoding="UTF-8" standalone="no"?>
<!-- Created with Inkscape (http://www.inkscape.org/) -->

<svg
   width="56"
   height="12"
   viewBox="0 0 56 12"
   version="1.1"
   id="svg1"
   xml:space="preserve"
   sodipodi:docname="patrimony_white_56_12_v2.svg"
   inkscape:version="1.4.2 (f4327f4, 2025-05-13)"
   inkscape:export-filename="patrimony_black_logo.svg"
   inkscape:export-xdpi="96"
   inkscape:export-ydpi="96"
   xmlns:inkscape="http://www.inkscape.org/namespaces/inkscape"
   xmlns:sodipodi="http://sodipodi.sourceforge.net/DTD/sodipodi-0.dtd"
   xmlns:xlink="http://www.w3.org/1999/xlink"
   xmlns="http://www.w3.org/2000/svg"
   xmlns:svg="http://www.w3.org/2000/svg"><sodipodi:namedview
     id="namedview1"
     pagecolor="#ffffff"
     bordercolor="#000000"
     borderopacity="0.25"
     inkscape:showpageshadow="2"
     inkscape:pageopacity="0.0"
     inkscape:pagecheckerboard="true"
     inkscape:deskcolor="#d1d1d1"
     inkscape:document-units="px"
     showguides="true"
     inkscape:zoom="11.313709"
     inkscape:cx="23.29033"
     inkscape:cy="-6.363961"
     inkscape:window-width="1716"
     inkscape:window-height="1018"
     inkscape:window-x="903"
     inkscape:window-y="0"
     inkscape:window-maximized="0"
     inkscape:current-layer="layer1" /><defs
     id="defs1"><linearGradient
       id="linearGradient5"
       inkscape:collect="always"><stop
         style="stop-color:#3ee0cd;stop-opacity:1;"
         offset="0"
         id="stop5" /><stop
         style="stop-color:#3e40cd;stop-opacity:1;"
         offset="1"
         id="stop6" /></linearGradient><rect
       x="4.4933333"
       y="5.1005406"
       width="24.531172"
       height="24.409731"
       id="rect2" /><linearGradient
       inkscape:collect="always"
       xlink:href="#linearGradient5"
       id="linearGradient1"
       gradientUnits="userSpaceOnUse"
       gradientTransform="matrix(0.65690243,0,0,0.4176147,-3.4020438,-0.603159)"
       x1="11.661991"
       y1="11.094711"
       x2="18.377546"
       y2="24.863638" /></defs><g
     inkscape:label="Layer 1"
     inkscape:groupmode="layer"
     id="layer1"><path
       id="text3-4"
       style="font-style:normal;font-variant:normal;font-weight:normal;font-stretch:normal;font-size:28.8842px;line-height:0px;font-family:'Tech Headlines';-inkscape-font-specification:'Tech Headlines';text-align:center;letter-spacing:0px;word-spacing:-0.0160466px;writing-mode:lr-tb;direction:ltr;text-anchor:middle;display:inline;fill:url(#linearGradient1);stroke-width:0;stroke-dasharray:none;paint-order:stroke fill markers"
       d="M 1.4316406 1.3066406 L 1.4316406 11.429688 L 1.4335938 11.429688 L 1.4335938 11.537109 C 1.8711813 11.813834 2.3828988 11.986629 2.9355469 12.019531 L 5.625 12.019531 L 5.625 12.017578 L 5.625 10.082031 L 5.625 9.7695312 L 8.140625 9.7695312 C 10.376924 9.7695312 11.494141 9.0603609 11.494141 7.6386719 L 11.494141 3.4394531 C 11.494141 2.017764 10.376923 1.3066406 8.140625 1.3066406 L 1.4316406 1.3066406 z M 10.164062 1.8652344 C 10.180893 1.8655478 10.197864 1.8671606 10.214844 1.8691406 C 10.486551 1.9008016 10.693672 2.1435718 10.669922 2.4179688 C 10.646172 2.6923655 10.402143 2.8954055 10.128906 2.8828125 C 10.061479 2.8796622 9.9962855 2.8645095 9.9375 2.8378906 L 6.6484375 4.6425781 L 6.6484375 4.6445312 C 6.6403975 4.6614522 6.6312398 4.6790555 6.6210938 4.6953125 C 6.4752848 4.9290086 6.165428 4.9986273 5.9277344 4.8632812 C 5.7417507 4.7573795 5.6413307 4.5482195 5.6679688 4.3457031 L 4.7890625 2.9375 C 4.7213925 2.93209 4.6579081 2.9137596 4.5996094 2.8847656 L 3.1601562 3.7460938 C 3.1365983 3.8484684 3.0829492 3.9439944 3.0019531 4.0175781 C 2.9894951 4.0288961 2.9766026 4.0386171 2.9628906 4.0488281 C 2.7435032 4.2122101 2.4268428 4.1788123 2.2558594 3.9628906 C 2.084876 3.7469691 2.1226556 3.4322109 2.3300781 3.2539062 C 2.4840477 3.1215515 2.6981728 3.0928982 2.875 3.1699219 L 4.3320312 2.296875 C 4.3947532 2.0712928 4.6079448 1.9175165 4.8417969 1.921875 C 4.8586109 1.9221884 4.8755961 1.9238013 4.8925781 1.9257812 C 5.1642848 1.9574422 5.3733591 2.200213 5.3496094 2.4746094 C 5.3462994 2.5128034 5.339516 2.5489444 5.328125 2.5839844 L 5.328125 2.5859375 L 6.1542969 3.9121094 C 6.2453539 3.9087194 6.3382711 3.9280423 6.421875 3.9726562 C 6.436722 3.9805862 6.4506148 3.990521 6.4648438 4 L 6.4667969 4 L 6.4667969 4.0019531 C 6.4687769 4.0028873 6.4726494 4.0048994 6.4746094 4.0058594 L 6.4765625 4.0058594 L 9.6464844 2.2636719 C 9.700919 2.0257235 9.9222046 1.8607305 10.164062 1.8652344 z M 8.1914062 4.4296875 C 8.1969462 4.4291307 8.2032924 4.4296875 8.2089844 4.4296875 L 10.333984 4.4296875 C 10.425054 4.4296875 10.498047 4.5026765 10.498047 4.59375 L 10.498047 8.6113281 C 10.498047 8.7024021 10.425057 8.7753906 10.333984 8.7753906 L 8.2089844 8.7753906 C 8.1179104 8.7753906 8.0449219 8.7024016 8.0449219 8.6113281 L 8.0449219 4.59375 C 8.0449219 4.508368 8.1083449 4.4380398 8.1914062 4.4296875 z M 2.2832031 4.8730469 C 2.2887431 4.8724876 2.2931331 4.8730469 2.2988281 4.8730469 L 4.4238281 4.8730469 C 4.5149021 4.8730469 4.5878906 4.9460359 4.5878906 5.0371094 L 4.5878906 8.6152344 C 4.5878906 8.7063084 4.5149016 8.7792969 4.4238281 8.7792969 L 2.2988281 8.7792969 C 2.2077541 8.7792969 2.1347656 8.7063079 2.1347656 8.6152344 L 2.1347656 5.0371094 C 2.1347656 4.9517274 2.2001056 4.8814356 2.2832031 4.8730469 z M 5.2128906 5.6972656 C 5.2184406 5.6966945 5.2247767 5.6972656 5.2304688 5.6972656 L 7.3535156 5.6972656 C 7.4445896 5.6972656 7.5175781 5.7722076 7.5175781 5.8632812 L 7.5175781 8.6132812 C 7.5175781 8.7043563 7.4445891 8.7773434 7.3535156 8.7773438 L 5.2304688 8.7773438 C 5.1393948 8.7773438 5.0644531 8.7043559 5.0644531 8.6132812 L 5.0644531 5.8632812 C 5.0644531 5.7778992 5.1296151 5.7058325 5.2128906 5.6972656 z " /><path
       d="m 14.92566,2.4806355 h 3.276433 q 0.319097,0 0.558419,0.2053895 0.245021,0.2053893 0.404568,0.547705 0.159549,0.3423157 0.239323,0.7922164 0.07976,0.4499006 0.07976,0.9487034 0,0.4988027 -0.07976,0.948704 -0.07977,0.4499001 -0.239323,0.792216 -0.159547,0.3423159 -0.404568,0.5477053 -0.239322,0.2053888 -0.558419,0.2053888 H 15.780382 V 9.8159724 H 14.92566 Z m 0.854722,1.4670672 v 2.0538942 h 2.421711 q 0.131058,0 0.210831,-0.097804 0.08547,-0.097804 0.131058,-0.2445109 0.04559,-0.1564878 0.06267,-0.3325356 0.02279,-0.1858285 0.02279,-0.3520961 0,-0.1662675 -0.02279,-0.3423156 -0.01709,-0.1858286 -0.06267,-0.3325354 -0.04558,-0.1564871 -0.131058,-0.2542916 -0.07976,-0.097804 -0.210831,-0.097804 z m 6.296453,-1.4670672 1.823406,7.3353369 H 22.960046 L 22.64095,8.5347333 H 20.373088 L 20.053993,9.8159724 H 19.113797 L 20.937205,2.4806355 Z M 22.299062,7.1654705 21.50702,3.9672637 20.714977,7.1654705 Z M 25.153829,3.9477027 H 23.273441 V 2.4806355 h 4.615498 v 1.4670672 h -1.880388 v 5.8682697 h -0.854722 z m 3.219448,-1.4670672 h 3.276432 q 0.319098,0 0.558421,0.2053895 0.24502,0.2053893 0.404568,0.547705 0.159548,0.3423157 0.239323,0.7922164 0.07976,0.4499006 0.07976,0.9487034 0,0.4694617 -0.07407,0.8998014 -0.06837,0.4205591 -0.216529,0.7530941 -0.142454,0.3325357 -0.364679,0.5379252 -0.216531,0.2053889 -0.507137,0.2445112 L 33.01726,9.8159724 H 31.871939 L 30.629741,7.419762 h -1.401743 v 2.3962104 h -0.854721 z m 0.854721,1.4670672 v 2.1027967 h 2.421711 q 0.131058,0 0.210833,-0.1075852 0.08547,-0.1075848 0.131059,-0.2640722 0.04558,-0.1662676 0.06267,-0.3520961 0.02279,-0.1858285 0.02279,-0.3520961 0,-0.1662675 -0.02279,-0.3423156 -0.01709,-0.1858286 -0.06267,-0.3325354 -0.04559,-0.1564872 -0.131059,-0.2542917 -0.07977,-0.097804 -0.210833,-0.097804 z m 4.27361,-1.4670672 h 0.85472 v 7.3353369 h -0.85472 z m 1.424532,0 h 1.054158 l 1.652463,5.5259538 1.652461,-5.5259538 H 40.33938 V 9.8159724 H 39.484659 V 5.0528936 L 38.060121,9.8159724 H 37.205398 L 35.780863,5.0528936 V 9.8159724 H 34.92614 Z m 8.062874,7.3842385 q -0.478643,0 -0.877514,-0.2640725 Q 41.718329,9.3269488 41.43912,8.8379273 41.159911,8.3391237 41.006059,7.654493 q -0.15385,-0.6846312 -0.15385,-1.5061895 0,-0.8215576 0.15385,-1.5061889 0.153852,-0.6846314 0.433061,-1.1736538 0.279209,-0.4988029 0.67238,-0.762875 0.398871,-0.2738525 0.877514,-0.2738525 h 0.968685 q 0.478645,0 0.871816,0.2738525 0.39887,0.2640721 0.67808,0.762875 0.279208,0.4890224 0.433059,1.1736538 0.153851,0.6846313 0.153851,1.5061889 0,0.8215583 -0.153851,1.5061895 -0.153851,0.6846307 -0.433059,1.1834343 -0.27921,0.4890215 -0.67808,0.7628742 -0.393171,0.2640725 -0.871816,0.2640725 z m 0.968685,-1.4670675 q 0.290605,0 0.524231,-0.1662672 0.23932,-0.1662672 0.404568,-0.4596813 0.170944,-0.3031941 0.262115,-0.7139723 0.09117,-0.4107793 0.09117,-0.9095822 0,-0.4988026 -0.09117,-0.9095815 Q 45.057442,4.8279433 44.886498,4.5345297 44.72125,4.2313357 44.48193,4.0650682 44.248304,3.8988005 43.957699,3.8988005 h -0.968685 q -0.290606,0 -0.529926,0.1662677 -0.233626,0.1662675 -0.40457,0.4694615 -0.165245,0.2934136 -0.256416,0.7041923 -0.09117,0.4107789 -0.09117,0.9095815 0,0.4988029 0.09117,0.9095822 0.09118,0.4107782 0.256416,0.7139723 0.170944,0.2934141 0.40457,0.4596813 0.23932,0.1662672 0.529926,0.1662672 z m 2.649636,-5.917171 h 1.054157 l 2.364731,5.4868312 V 2.4806355 h 0.854723 v 7.3353369 h -1.054159 l -2.36473,-5.4868322 v 5.4868322 h -0.854722 z m 4.700971,0 h 1.014274 l 1.293477,3.2373283 1.293478,-3.2373283 h 1.014274 l -1.880391,4.684835 V 9.8159724 H 53.188696 V 7.1654705 Z"
       id="text1"
       style="font-size:21.9447px;line-height:0px;font-family:'Artonex Trial';-inkscape-font-specification:'Artonex Trial';text-align:center;letter-spacing:0px;word-spacing:-0.0182872px;text-anchor:middle;fill:#ffffff;fill-opacity:1;stroke-width:0.528788;stroke-linecap:round;stroke-linejoin:round;paint-order:stroke fill markers"
       aria-label="PATRIMONY"
       inkscape:label="Text" /></g></svg>
