<?xml version="1.0" encoding="UTF-8" standalone="no"?>
<!-- Created with Inkscape (http://www.inkscape.org/) -->

<svg
   width="56"
   height="12"
   viewBox="0 0 56 12"
   version="1.1"
   id="svg1"
   xml:space="preserve"
   sodipodi:docname="patrimony_black_56_12_v22.svg"
   inkscape:version="1.4.2 (f4327f4, 2025-05-13)"
   inkscape:export-filename="patrimony_black_logo.svg"
   inkscape:export-xdpi="96"
   inkscape:export-ydpi="96"
   xmlns:inkscape="http://www.inkscape.org/namespaces/inkscape"
   xmlns:sodipodi="http://sodipodi.sourceforge.net/DTD/sodipodi-0.dtd"
   xmlns:xlink="http://www.w3.org/1999/xlink"
   xmlns="http://www.w3.org/2000/svg"
   xmlns:svg="http://www.w3.org/2000/svg"><sodipodi:namedview
     id="namedview1"
     pagecolor="#ffffff"
     bordercolor="#000000"
     borderopacity="0.25"
     inkscape:showpageshadow="2"
     inkscape:pageopacity="0.0"
     inkscape:pagecheckerboard="true"
     inkscape:deskcolor="#d1d1d1"
     inkscape:document-units="px"
     showguides="true"
     inkscape:zoom="7.9999996"
     inkscape:cx="25.562501"
     inkscape:cy="-4.3750002"
     inkscape:window-width="1205"
     inkscape:window-height="1018"
     inkscape:window-x="2626"
     inkscape:window-y="0"
     inkscape:window-maximized="0"
     inkscape:current-layer="layer1" /><defs
     id="defs1"><linearGradient
       id="linearGradient5"
       inkscape:collect="always"><stop
         style="stop-color:#3ee0cd;stop-opacity:1;"
         offset="0"
         id="stop5" /><stop
         style="stop-color:#3e40cd;stop-opacity:1;"
         offset="1"
         id="stop6" /></linearGradient><rect
       x="4.4933333"
       y="5.1005406"
       width="24.531172"
       height="24.409731"
       id="rect2" /><linearGradient
       inkscape:collect="always"
       xlink:href="#linearGradient5"
       id="linearGradient6"
       x1="11.661991"
       y1="11.094711"
       x2="18.377546"
       y2="24.863638"
       gradientUnits="userSpaceOnUse"
       gradientTransform="matrix(0.65690243,0,0,0.4176147,-3.4024691,-0.6034272)" /></defs><g
     inkscape:label="Layer 1"
     inkscape:groupmode="layer"
     id="layer1"><path
       id="rect1"
       style="display:inline;fill:#131a2c;stroke-width:0;paint-order:stroke fill markers"
       d="m 3.1299045,0 h 5.7644243 c 1.7339672,0 3.1299042,1.3959374 3.1299042,3.1299045 v 5.7644243 c 0,1.7339672 -1.395937,3.1299042 -3.1299042,3.1299042 H 3.1299045 C 1.3959374,12.024233 0,10.628296 0,8.8943288 V 3.1299045 C 0,1.3959374 1.3959374,0 3.1299045,0 Z" /><path
       id="text3"
       style="font-style:normal;font-variant:normal;font-weight:normal;font-stretch:normal;font-size:28.8842px;line-height:0px;font-family:'Tech Headlines';-inkscape-font-specification:'Tech Headlines';text-align:center;letter-spacing:0px;word-spacing:-0.0160466px;writing-mode:lr-tb;direction:ltr;text-anchor:middle;display:inline;fill:url(#linearGradient6);stroke-width:0;stroke-dasharray:none;paint-order:stroke fill markers"
       d="M 1.4325747,1.3067319 V 11.536349 c 0.4375875,0.276725 0.9503811,0.449111 1.5030292,0.482013 H 5.624617 V 9.7703946 h 2.5165465 c 2.2362985,0 3.3539275,-0.7109824 3.3539275,-2.1326714 V 3.4394033 c 0,-1.4216891 -1.117629,-2.1326714 -3.3539275,-2.1326714 z"
       sodipodi:nodetypes="cccccssssc" /><path
       id="rect8"
       style="fill:#131a2c;stroke-width:0.567266;stroke-linecap:round;stroke-linejoin:round;paint-order:stroke fill markers"
       d="m 2.2994911,4.872978 h 2.1243435 c 0.091074,0 0.1643938,0.07332 0.1643938,0.1643938 v 3.5775341 c 0,0.091074 -0.07332,0.1643939 -0.1643938,0.1643939 H 2.2994911 c -0.091074,0 -0.1643939,-0.07332 -0.1643939,-0.1643939 V 5.0373718 c 0,-0.091074 0.07332,-0.1643938 0.1643939,-0.1643938 z" /><path
       id="rect8-7"
       style="fill:#131a2c;stroke-width:0.503669;stroke-linecap:round;stroke-linejoin:round;paint-order:stroke fill markers"
       d="m 5.2296578,5.6982327 h 2.1243434 c 0.091074,0 0.1643939,0.07332 0.1643939,0.1643938 v 2.7507366 c 0,0.091074 -0.07332,0.1643938 -0.1643939,0.1643938 H 5.2296578 c -0.091074,0 -0.1643939,-0.07332 -0.1643939,-0.1643938 V 5.8626265 c 0,-0.091074 0.07332,-0.1643938 0.1643939,-0.1643938 z" /><path
       id="rect8-2"
       style="fill:#131a2c;stroke-width:0.598269;stroke-linecap:round;stroke-linejoin:round;paint-order:stroke fill markers"
       d="m 8.2092677,4.4300609 h 2.1243443 c 0.09107,0 0.164393,0.07332 0.164393,0.1643938 v 4.0161597 c 0,0.091074 -0.07332,0.1643938 -0.164393,0.1643938 H 8.2092677 c -0.091074,0 -0.1643938,-0.07332 -0.1643938,-0.1643938 V 4.5944547 c 0,-0.091074 0.07332,-0.1643938 0.1643938,-0.1643938 z" /><path
       style="fill:#131a2c;fill-opacity:1;stroke:#131a2c;stroke-width:0.642372;stroke-linecap:round;stroke-linejoin:round;stroke-dasharray:none;stroke-opacity:1;paint-order:stroke fill markers"
       d="M 2.7715677,3.6048075 4.8474754,2.3629047"
       id="path8" /><path
       style="fill:#131a2c;fill-opacity:1;stroke:#131a2c;stroke-width:0.642635;stroke-linecap:round;stroke-linejoin:round;stroke-dasharray:none;stroke-opacity:1;paint-order:stroke fill markers"
       d="M 5.0448434,2.7407255 5.9633276,4.2127127"
       id="path9" /><path
       style="fill:#131a2c;fill-opacity:1;stroke:#131a2c;stroke-width:0.642372;stroke-linecap:round;stroke-linejoin:round;stroke-dasharray:none;stroke-opacity:1;paint-order:stroke fill markers"
       d="M 6.4787148,4.371832 10.052355,2.4071339"
       id="path10" /><path
       id="path11-4"
       style="fill:#131a2c;stroke:#131a2c;stroke-width:0.422464;stroke-linecap:round;stroke-linejoin:round;paint-order:stroke fill markers"
       d="M 4.5280775,2.3855515 A 0.30759893,0.2979366 0 0 1 4.868691,2.1359855 0.30759893,0.2979366 0 0 1 5.1384735,2.456679 0.30759893,0.2979366 0 0 1 4.8173303,2.729389 0.30759893,0.2979366 0 0 1 4.5243711,2.4283765 l 0.3075787,0.00341 z" /><path
       id="path11-4-6"
       style="fill:#131a2c;stroke:#131a2c;stroke-width:0.422464;stroke-linecap:round;stroke-linejoin:round;paint-order:stroke fill markers"
       d="M 2.3569195,3.5938474 A 0.30759893,0.2979366 0 0 1 2.6975327,3.3442814 0.30759893,0.2979366 0 0 1 2.9673153,3.664975 0.30759893,0.2979366 0 0 1 2.6461719,3.9376851 0.30759893,0.2979366 0 0 1 2.3532129,3.6366724 l 0.3075787,0.00341 z" /><path
       id="path11-4-60"
       style="fill:#131a2c;stroke:#131a2c;stroke-width:0.422464;stroke-linecap:round;stroke-linejoin:round;paint-order:stroke fill markers"
       d="M 5.8763387,4.3755453 A 0.30759893,0.2979366 0 0 1 6.2169518,4.1259793 0.30759893,0.2979366 0 0 1 6.4867346,4.4466731 0.30759893,0.2979366 0 0 1 6.165591,4.7193831 0.30759893,0.2979366 0 0 1 5.8726322,4.4183703 l 0.3075788,0.00342 z" /><path
       id="path11-4-5"
       style="fill:#131a2c;stroke:#131a2c;stroke-width:0.422464;stroke-linecap:round;stroke-linejoin:round;paint-order:stroke fill markers"
       d="M 9.8492837,2.3285165 A 0.30759893,0.2979366 0 0 1 10.189897,2.0789505 0.30759893,0.2979366 0 0 1 10.45968,2.399644 0.30759893,0.2979366 0 0 1 10.138536,2.672354 0.30759893,0.2979366 0 0 1 9.8455768,2.3713415 l 0.3075792,0.00341 z" /><path
       d="m 14.926,2.4809022 h 3.276433 q 0.319097,0 0.558419,0.2053895 0.245021,0.2053893 0.404568,0.547705 0.159549,0.3423157 0.239323,0.7922164 0.07976,0.4499006 0.07976,0.9487034 0,0.4988027 -0.07976,0.948704 -0.07977,0.4499001 -0.239323,0.792216 Q 19.005873,7.0581524 18.760852,7.2635418 18.52153,7.468931 18.202433,7.468931 H 15.780722 V 9.816239 H 14.926 Z m 0.854722,1.4670672 v 2.0538942 h 2.421711 q 0.131058,0 0.210831,-0.097804 0.08547,-0.097804 0.131058,-0.2445109 0.04559,-0.1564878 0.06267,-0.3325356 0.02279,-0.1858285 0.02279,-0.3520961 0,-0.1662675 -0.02279,-0.3423156 -0.01709,-0.1858286 -0.06267,-0.3325354 -0.04558,-0.1564871 -0.131058,-0.2542916 -0.07976,-0.097804 -0.210831,-0.097804 z M 22.077175,2.4809022 23.900581,9.816239 H 22.960386 L 22.64129,8.535 H 20.373428 L 20.054333,9.816239 H 19.114137 L 20.937545,2.4809022 Z M 22.299402,7.1657372 21.50736,3.9675304 20.715317,7.1657372 Z M 25.154169,3.9479694 H 23.273781 V 2.4809022 h 4.615498 V 3.9479694 H 26.008891 V 9.816239 h -0.854722 z m 3.219448,-1.4670672 h 3.276432 q 0.319098,0 0.558421,0.2053895 0.24502,0.2053893 0.404568,0.547705 0.159548,0.3423157 0.239323,0.7922164 0.07976,0.4499006 0.07976,0.9487034 0,0.4694617 -0.07407,0.8998014 -0.06837,0.4205591 -0.216529,0.7530941 -0.142454,0.3325357 -0.364679,0.5379252 -0.216531,0.2053889 -0.507137,0.2445112 L 33.0176,9.816239 H 31.872279 L 30.630081,7.4200287 H 29.228338 V 9.816239 h -0.854721 z m 0.854721,1.4670672 v 2.1027967 h 2.421711 q 0.131058,0 0.210833,-0.1075852 0.08547,-0.1075848 0.131059,-0.2640722 0.04558,-0.1662676 0.06267,-0.3520961 0.02279,-0.1858285 0.02279,-0.3520961 0,-0.1662675 -0.02279,-0.3423156 -0.01709,-0.1858286 -0.06267,-0.3325354 -0.04559,-0.1564872 -0.131059,-0.2542917 -0.07977,-0.097804 -0.210833,-0.097804 z m 4.27361,-1.4670672 h 0.85472 V 9.816239 h -0.85472 z m 1.424532,0 h 1.054158 L 37.633101,8.006856 39.285562,2.4809022 H 40.33972 V 9.816239 H 39.484999 V 5.0531603 L 38.060461,9.816239 H 37.205738 L 35.781203,5.0531603 V 9.816239 H 34.92648 Z m 8.062874,7.3842388 q -0.478643,0 -0.877514,-0.264073 Q 41.718669,9.327216 41.43946,8.838194 41.160251,8.33939 41.006399,7.65476 q -0.15385,-0.6846315 -0.15385,-1.5061898 0,-0.8215576 0.15385,-1.5061889 Q 41.160251,3.9577499 41.43946,3.4687275 41.718669,2.9699246 42.11184,2.7058525 42.510711,2.432 42.989354,2.432 h 0.968685 q 0.478645,0 0.871816,0.2738525 0.39887,0.2640721 0.67808,0.762875 0.279208,0.4890224 0.433059,1.1736538 0.153851,0.6846313 0.153851,1.5061889 0,0.8215583 -0.153851,1.5061898 -0.153851,0.68463 -0.433059,1.183434 -0.27921,0.489022 -0.67808,0.762874 -0.393171,0.264073 -0.871816,0.264073 z m 0.968685,-1.467068 q 0.290605,0 0.524231,-0.166267 0.23932,-0.166267 0.404568,-0.459681 0.170944,-0.303194 0.262115,-0.7139726 0.09117,-0.4107793 0.09117,-0.9095822 0,-0.4988026 -0.09117,-0.9095815 Q 45.057782,4.82821 44.886838,4.5347964 44.72159,4.2316024 44.48227,4.0653349 44.248644,3.8990672 43.958039,3.8990672 h -0.968685 q -0.290606,0 -0.529926,0.1662677 -0.233626,0.1662675 -0.40457,0.4694615 -0.165245,0.2934136 -0.256416,0.7041923 -0.09117,0.4107789 -0.09117,0.9095815 0,0.4988029 0.09117,0.9095822 0.09118,0.4107786 0.256416,0.7139726 0.170944,0.293414 0.40457,0.459681 0.23932,0.166267 0.529926,0.166267 z m 2.649636,-5.9171708 h 1.054157 L 50.026563,7.967733 V 2.4809022 h 0.854723 V 9.816239 H 49.827127 L 47.462397,4.3294069 V 9.816239 h -0.854722 z m 4.700971,0 h 1.014274 l 1.293477,3.2373283 1.293478,-3.2373283 h 1.014274 l -1.880391,4.684835 V 9.816239 H 53.189036 V 7.1657372 Z"
       id="text1"
       style="font-size:21.9447px;line-height:0px;font-family:'Artonex Trial';-inkscape-font-specification:'Artonex Trial';text-align:center;letter-spacing:0px;word-spacing:-0.0182872px;text-anchor:middle;fill:#000000;fill-opacity:1;stroke-width:0.528788;stroke-linecap:round;stroke-linejoin:round;paint-order:stroke fill markers"
       aria-label="PATRIMONY"
       inkscape:label="Text" /></g></svg>
