<?xml version="1.0" encoding="UTF-8" standalone="no"?>
<!-- Created with Inkscape (http://www.inkscape.org/) -->

<svg
   width="56"
   height="12"
   viewBox="0 0 56 12"
   version="1.1"
   id="svg1"
   xml:space="preserve"
   sodipodi:docname="patrimony_white_56_12.svg"
   inkscape:version="1.4.2 (f4327f4, 2025-05-13)"
   inkscape:export-filename="patrimony_black_logo.svg"
   inkscape:export-xdpi="96"
   inkscape:export-ydpi="96"
   xmlns:inkscape="http://www.inkscape.org/namespaces/inkscape"
   xmlns:sodipodi="http://sodipodi.sourceforge.net/DTD/sodipodi-0.dtd"
   xmlns:xlink="http://www.w3.org/1999/xlink"
   xmlns="http://www.w3.org/2000/svg"
   xmlns:svg="http://www.w3.org/2000/svg"><sodipodi:namedview
     id="namedview1"
     pagecolor="#ffffff"
     bordercolor="#000000"
     borderopacity="0.25"
     inkscape:showpageshadow="2"
     inkscape:pageopacity="0.0"
     inkscape:pagecheckerboard="true"
     inkscape:deskcolor="#d1d1d1"
     inkscape:document-units="px"
     showguides="true"
     inkscape:zoom="11.313708"
     inkscape:cx="34.029514"
     inkscape:cy="4.065864"
     inkscape:window-width="1716"
     inkscape:window-height="1018"
     inkscape:window-x="903"
     inkscape:window-y="0"
     inkscape:window-maximized="0"
     inkscape:current-layer="layer1" /><defs
     id="defs1"><linearGradient
       id="linearGradient5"
       inkscape:collect="always"><stop
         style="stop-color:#3ee0cd;stop-opacity:1;"
         offset="0"
         id="stop5" /><stop
         style="stop-color:#3e40cd;stop-opacity:1;"
         offset="1"
         id="stop6" /></linearGradient><rect
       x="4.4933333"
       y="5.1005406"
       width="24.531172"
       height="24.409731"
       id="rect2" /><linearGradient
       inkscape:collect="always"
       xlink:href="#linearGradient5"
       id="linearGradient6"
       x1="11.661991"
       y1="11.094711"
       x2="18.377546"
       y2="24.863638"
       gradientUnits="userSpaceOnUse"
       gradientTransform="matrix(0.65690243,0,0,0.4176147,-3.4024691,-0.6034272)" /></defs><g
     inkscape:label="Layer 1"
     inkscape:groupmode="layer"
     id="layer1"><path
       id="rect1"
       style="display:inline;fill:#131a2c;stroke-width:0;paint-order:stroke fill markers"
       d="m 3.1299045,0 h 5.7644243 c 1.7339672,0 3.1299042,1.3959374 3.1299042,3.1299045 v 5.7644243 c 0,1.7339672 -1.395937,3.1299042 -3.1299042,3.1299042 H 3.1299045 C 1.3959374,12.024233 0,10.628296 0,8.8943288 V 3.1299045 C 0,1.3959374 1.3959374,0 3.1299045,0 Z" /><path
       id="text3"
       style="font-style:normal;font-variant:normal;font-weight:normal;font-stretch:normal;font-size:28.8842px;line-height:0px;font-family:'Tech Headlines';-inkscape-font-specification:'Tech Headlines';text-align:center;letter-spacing:0px;word-spacing:-0.0160466px;writing-mode:lr-tb;direction:ltr;text-anchor:middle;display:inline;fill:url(#linearGradient6);stroke-width:0;stroke-dasharray:none;paint-order:stroke fill markers"
       d="M 1.4325747,1.3067319 V 11.536349 c 0.4375875,0.276725 0.9503811,0.449111 1.5030292,0.482013 H 5.624617 V 9.7703946 h 2.5165465 c 2.2362985,0 3.3539275,-0.7109824 3.3539275,-2.1326714 V 3.4394033 c 0,-1.4216891 -1.117629,-2.1326714 -3.3539275,-2.1326714 z"
       sodipodi:nodetypes="cccccssssc" /><path
       id="rect8"
       style="fill:#131a2c;stroke-width:0.567266;stroke-linecap:round;stroke-linejoin:round;paint-order:stroke fill markers"
       d="m 2.2994911,4.872978 h 2.1243435 c 0.091074,0 0.1643938,0.07332 0.1643938,0.1643938 v 3.5775341 c 0,0.091074 -0.07332,0.1643939 -0.1643938,0.1643939 H 2.2994911 c -0.091074,0 -0.1643939,-0.07332 -0.1643939,-0.1643939 V 5.0373718 c 0,-0.091074 0.07332,-0.1643938 0.1643939,-0.1643938 z" /><path
       id="rect8-7"
       style="fill:#131a2c;stroke-width:0.503669;stroke-linecap:round;stroke-linejoin:round;paint-order:stroke fill markers"
       d="m 5.2296578,5.6982327 h 2.1243434 c 0.091074,0 0.1643939,0.07332 0.1643939,0.1643938 v 2.7507366 c 0,0.091074 -0.07332,0.1643938 -0.1643939,0.1643938 H 5.2296578 c -0.091074,0 -0.1643939,-0.07332 -0.1643939,-0.1643938 V 5.8626265 c 0,-0.091074 0.07332,-0.1643938 0.1643939,-0.1643938 z" /><path
       id="rect8-2"
       style="fill:#131a2c;stroke-width:0.598269;stroke-linecap:round;stroke-linejoin:round;paint-order:stroke fill markers"
       d="m 8.2092677,4.4300609 h 2.1243443 c 0.09107,0 0.164393,0.07332 0.164393,0.1643938 v 4.0161597 c 0,0.091074 -0.07332,0.1643938 -0.164393,0.1643938 H 8.2092677 c -0.091074,0 -0.1643938,-0.07332 -0.1643938,-0.1643938 V 4.5944547 c 0,-0.091074 0.07332,-0.1643938 0.1643938,-0.1643938 z" /><path
       style="fill:#131a2c;fill-opacity:1;stroke:#131a2c;stroke-width:0.642372;stroke-linecap:round;stroke-linejoin:round;stroke-dasharray:none;stroke-opacity:1;paint-order:stroke fill markers"
       d="M 2.7715677,3.6048075 4.8474754,2.3629047"
       id="path8" /><path
       style="fill:#131a2c;fill-opacity:1;stroke:#131a2c;stroke-width:0.642635;stroke-linecap:round;stroke-linejoin:round;stroke-dasharray:none;stroke-opacity:1;paint-order:stroke fill markers"
       d="M 5.0448434,2.7407255 5.9633276,4.2127127"
       id="path9" /><path
       style="fill:#131a2c;fill-opacity:1;stroke:#131a2c;stroke-width:0.642372;stroke-linecap:round;stroke-linejoin:round;stroke-dasharray:none;stroke-opacity:1;paint-order:stroke fill markers"
       d="M 6.4787148,4.371832 10.052355,2.4071339"
       id="path10" /><path
       id="path11-4"
       style="fill:#131a2c;stroke:#131a2c;stroke-width:0.422464;stroke-linecap:round;stroke-linejoin:round;paint-order:stroke fill markers"
       d="M 4.5280775,2.3855515 A 0.30759893,0.2979366 0 0 1 4.868691,2.1359855 0.30759893,0.2979366 0 0 1 5.1384735,2.456679 0.30759893,0.2979366 0 0 1 4.8173303,2.729389 0.30759893,0.2979366 0 0 1 4.5243711,2.4283765 l 0.3075787,0.00341 z" /><path
       id="path11-4-6"
       style="fill:#131a2c;stroke:#131a2c;stroke-width:0.422464;stroke-linecap:round;stroke-linejoin:round;paint-order:stroke fill markers"
       d="M 2.3569195,3.5938474 A 0.30759893,0.2979366 0 0 1 2.6975327,3.3442814 0.30759893,0.2979366 0 0 1 2.9673153,3.664975 0.30759893,0.2979366 0 0 1 2.6461719,3.9376851 0.30759893,0.2979366 0 0 1 2.3532129,3.6366724 l 0.3075787,0.00341 z" /><path
       id="path11-4-60"
       style="fill:#131a2c;stroke:#131a2c;stroke-width:0.422464;stroke-linecap:round;stroke-linejoin:round;paint-order:stroke fill markers"
       d="M 5.8763387,4.3755453 A 0.30759893,0.2979366 0 0 1 6.2169518,4.1259793 0.30759893,0.2979366 0 0 1 6.4867346,4.4466731 0.30759893,0.2979366 0 0 1 6.165591,4.7193831 0.30759893,0.2979366 0 0 1 5.8726322,4.4183703 l 0.3075788,0.00342 z" /><path
       id="path11-4-5"
       style="fill:#131a2c;stroke:#131a2c;stroke-width:0.422464;stroke-linecap:round;stroke-linejoin:round;paint-order:stroke fill markers"
       d="M 9.8492837,2.3285165 A 0.30759893,0.2979366 0 0 1 10.189897,2.0789505 0.30759893,0.2979366 0 0 1 10.45968,2.399644 0.30759893,0.2979366 0 0 1 10.138536,2.672354 0.30759893,0.2979366 0 0 1 9.8455768,2.3713415 l 0.3075792,0.00341 z" /><path
       d="m 13.11316,2.4806355 h 3.421282 q 0.333204,0 0.583106,0.2053895 0.255853,0.2053893 0.422454,0.547705 0.166602,0.3423157 0.249903,0.7922164 0.08329,0.4499006 0.08329,0.9487034 0,0.4988027 -0.08329,0.948704 -0.0833,0.4499001 -0.249903,0.792216 -0.166601,0.3423159 -0.422454,0.5477053 -0.249902,0.2053888 -0.583106,0.2053888 H 14.005669 V 9.8159724 H 13.11316 Z m 0.892509,1.4670672 v 2.0538942 h 2.528773 q 0.136852,0 0.220152,-0.097804 0.08925,-0.097804 0.136852,-0.2445109 0.04761,-0.1564878 0.06544,-0.3325356 0.0238,-0.1858285 0.0238,-0.3520961 0,-0.1662675 -0.0238,-0.3423156 -0.01785,-0.1858286 -0.06544,-0.3325354 -0.0476,-0.1564871 -0.136852,-0.2542916 -0.08329,-0.097804 -0.220152,-0.097804 z m 6.574814,-1.4670672 1.904018,7.3353369 h -0.98176 L 21.169538,8.5347333 h -2.368123 l -0.333202,1.2812391 h -0.981761 l 1.904019,-7.3353369 z m 0.232052,4.684835 -0.827058,-3.1982068 -0.827058,3.1982068 z M 23.793509,3.9477027 H 21.829991 V 2.4806355 h 4.819546 v 1.4670672 h -1.963519 v 5.8682697 h -0.892509 z m 3.361778,-1.4670672 h 3.421281 q 0.333205,0 0.583108,0.2053895 0.255852,0.2053893 0.422454,0.547705 0.166601,0.3423157 0.249903,0.7922164 0.08329,0.4499006 0.08329,0.9487034 0,0.4694617 -0.07734,0.8998014 -0.07139,0.4205591 -0.226102,0.7530941 Q 31.46313,6.960081 31.23108,7.1654705 31.004977,7.3708594 30.701523,7.4099817 l 1.303063,2.4059907 H 30.808622 L 29.511508,7.419762 h -1.463713 v 2.3962104 h -0.892508 z m 0.892508,1.4670672 v 2.1027967 h 2.528773 q 0.136852,0 0.220154,-0.1075852 0.08925,-0.1075848 0.136852,-0.2640722 0.0476,-0.1662676 0.06544,-0.3520961 0.0238,-0.1858285 0.0238,-0.3520961 0,-0.1662675 -0.0238,-0.3423156 -0.01784,-0.1858286 -0.06544,-0.3325354 -0.04761,-0.1564872 -0.136852,-0.2542917 -0.0833,-0.097804 -0.220154,-0.097804 z m 4.462543,-1.4670672 h 0.892506 v 7.3353369 h -0.892506 z m 1.487509,0 h 1.100762 l 1.725517,5.5259538 1.725516,-5.5259538 h 1.100761 V 9.8159724 H 38.757895 V 5.0528936 L 37.27038,9.8159724 H 36.37787 L 34.890357,5.0528936 v 4.7630788 h -0.89251 z m 8.419329,7.3842385 q -0.499804,0 -0.916309,-0.2640725 Q 41.090314,9.3269488 40.798762,8.8379273 40.507209,8.3391237 40.346556,7.654493 40.185904,6.9698618 40.185904,6.1483035 q 0,-0.8215576 0.160652,-1.5061889 0.160653,-0.6846314 0.452206,-1.1736538 0.291552,-0.4988029 0.702105,-0.762875 0.416505,-0.2738525 0.916309,-0.2738525 h 1.011509 q 0.499806,0 0.910359,0.2738525 0.416504,0.2640721 0.708057,0.762875 0.291552,0.4890224 0.452205,1.1736538 0.160652,0.6846313 0.160652,1.5061889 0,0.8215583 -0.160652,1.5061895 -0.160653,0.6846307 -0.452205,1.1834343 -0.291553,0.4890215 -0.708057,0.7628742 -0.410553,0.2640725 -0.910359,0.2640725 z m 1.011509,-1.4670675 q 0.303453,0 0.547407,-0.1662672 0.249901,-0.1662672 0.422454,-0.4596813 0.178501,-0.3031941 0.273703,-0.7139723 0.0952,-0.4107793 0.0952,-0.9095822 0,-0.4988026 -0.0952,-0.9095815 Q 44.577047,4.8279433 44.398546,4.5345297 44.225993,4.2313357 43.976092,4.0650682 43.732138,3.8988005 43.428685,3.8988005 h -1.011509 q -0.303454,0 -0.553354,0.1662677 -0.243955,0.1662675 -0.422456,0.4694615 -0.17255,0.2934136 -0.267752,0.7041923 -0.0952,0.4107789 -0.0952,0.9095815 0,0.4988029 0.0952,0.9095822 0.09521,0.4107782 0.267752,0.7139723 0.178501,0.2934141 0.422456,0.4596813 0.2499,0.1662672 0.553354,0.1662672 z m 2.766775,-5.917171 h 1.100761 l 2.469274,5.4868312 V 2.4806355 h 0.892509 V 9.8159724 H 49.557242 L 47.087969,4.3291402 V 9.8159724 H 46.19546 Z m 4.908798,0 h 1.059114 l 1.350661,3.2373283 1.350662,-3.2373283 h 1.059114 l -1.963522,4.684835 V 9.8159724 H 53.067779 V 7.1654705 Z"
       id="text1"
       style="font-size:21.9447px;line-height:0px;font-family:'Artonex Trial';-inkscape-font-specification:'Artonex Trial';text-align:center;letter-spacing:0px;word-spacing:-0.0182872px;text-anchor:middle;fill:#ffffff;stroke-width:0.54035;stroke-linecap:round;stroke-linejoin:round;paint-order:stroke fill markers;fill-opacity:1"
       aria-label="PATRIMONY" /></g></svg>
